<svg width="128" height="128" viewBox="0 0 128 128" fill="none" xmlns="http://www.w3.org/2000/svg">
<path fill-rule="evenodd" clip-rule="evenodd" d="M64.388 4.99997C31.041 4.99997 4 32.035 4 65.388C4 92.07 21.303 114.705 45.297 122.691C48.314 123.251 49.422 121.381 49.422 119.786C49.422 118.346 49.366 113.589 49.34 108.543C32.54 112.196 28.995 101.418 28.995 101.418C26.248 94.438 22.29 92.582 22.29 92.582C16.81 88.834 22.703 88.912 22.703 88.912C28.766 89.337 31.96 95.135 31.96 95.135C37.346 104.365 46.087 101.697 49.533 100.155C50.075 96.252 51.64 93.587 53.367 92.079C39.954 90.554 25.853 85.375 25.853 62.236C25.853 55.643 28.213 50.256 32.076 46.026C31.448 44.506 29.381 38.364 32.66 30.046C32.66 30.046 37.73 28.423 49.27 36.236C54.088 34.897 59.255 34.224 64.388 34.201C69.518 34.224 74.688 34.895 79.515 36.234C91.041 28.421 96.105 30.044 96.105 30.044C99.392 38.361 97.325 44.504 96.698 46.024C100.57 50.254 102.913 55.641 102.913 62.234C102.913 85.428 88.786 90.534 75.339 92.03C77.506 93.904 79.436 97.58 79.436 103.213C79.436 111.293 79.366 117.796 79.366 119.785C79.366 121.392 80.454 123.275 83.514 122.682C107.494 114.688 124.777 92.06 124.777 65.388C124.776 32.037 97.738 4.99997 64.388 4.99997Z" fill="#445964"/>
<path d="M26.4841 91.806C26.3511 92.106 25.8791 92.196 25.4491 91.991C25.0091 91.795 24.7641 91.386 24.9061 91.085C25.0361 90.775 25.5091 90.69 25.9461 90.897C26.3861 91.094 26.6361 91.507 26.4831 91.807L26.4841 91.806ZM28.9301 94.535C28.6431 94.802 28.0801 94.678 27.6981 94.255C27.3021 93.835 27.2281 93.272 27.5211 93.001C27.8191 92.735 28.3651 92.861 28.7611 93.281C29.1551 93.707 29.2331 94.265 28.9311 94.536L28.9301 94.535ZM31.3121 98.012C30.9421 98.27 30.3361 98.029 29.9621 97.492C29.5921 96.954 29.5921 96.309 29.9721 96.052C30.3451 95.794 30.9421 96.027 31.3221 96.559C31.6901 97.104 31.6901 97.75 31.3121 98.012ZM34.5731 101.373C34.2431 101.738 33.5371 101.64 33.0211 101.143C32.4941 100.656 32.3471 99.963 32.6781 99.599C33.0141 99.233 33.7231 99.335 34.2421 99.829C34.7691 100.315 34.9281 101.009 34.5751 101.372L34.5731 101.373ZM39.0731 103.324C38.9261 103.797 38.2481 104.012 37.5631 103.81C36.8801 103.603 36.4331 103.05 36.5731 102.572C36.7131 102.095 37.3961 101.872 38.0851 102.087C38.7681 102.293 39.2151 102.843 39.0731 103.324ZM44.0161 103.685C44.0331 104.183 43.4531 104.595 42.7361 104.605C42.0131 104.622 41.4281 104.218 41.4211 103.728C41.4211 103.225 41.9891 102.818 42.7111 102.804C43.4281 102.791 44.0171 103.191 44.0171 103.684L44.0161 103.685ZM48.6141 102.903C48.7001 103.388 48.2011 103.887 47.4881 104.02C46.7881 104.15 46.1381 103.848 46.0481 103.367C45.9621 102.869 46.4701 102.37 47.1701 102.241C47.8841 102.118 48.5241 102.41 48.6141 102.903Z" fill="#445964"/>
</svg>
