<svg width="128" height="128" viewBox="0 0 128 128" fill="none" xmlns="http://www.w3.org/2000/svg">
<path d="M64 26C46.933 26 36.27 34.53 32 51.597C38.398 43.066 45.867 39.867 54.398 42C59.269 43.214 62.75 46.746 66.605 50.66C72.879 57.027 80.141 64.398 96 64.398C113.066 64.398 123.73 55.867 128 38.796C121.601 47.332 114.133 50.531 105.601 48.398C100.731 47.183 97.254 43.652 93.394 39.738C87.124 33.371 79.864 26 64 26ZM32 64.398C14.934 64.398 4.27 72.929 0 90C6.398 81.464 13.866 78.265 22.398 80.398C27.269 81.613 30.75 85.144 34.605 89.058C40.879 95.425 48.141 102.796 64 102.796C81.066 102.796 91.73 94.266 96 77.199C89.601 85.73 82.133 88.929 73.601 86.796C68.731 85.582 65.254 82.05 61.394 78.136C55.124 71.769 47.864 64.398 32 64.398Z" fill="#445964"/>
</svg>
