<svg width="128" height="128" viewBox="0 0 128 128" fill="none" xmlns="http://www.w3.org/2000/svg">
<path d="M22.67 47H122.34V120.67H22.67V47Z" fill="white"/>
<path d="M1 63.5V126H126V1H1V63.5ZM101.73 58.5C104.724 59.1948 107.445 60.7606 109.55 63C110.709 64.2064 111.716 65.5497 112.55 67C112.55 67.16 107.15 70.81 103.86 72.85C103.74 72.93 103.26 72.41 102.73 71.62C102.129 70.5837 101.276 69.7164 100.25 69.0991C99.2231 68.4818 98.057 68.1346 96.86 68.09C93.07 67.83 90.63 69.82 90.65 73.09C90.6187 73.9041 90.8051 74.7119 91.19 75.43C92.02 77.16 93.57 78.19 98.43 80.29C107.38 84.14 111.21 86.68 113.59 90.29C116.25 94.29 116.84 100.75 115.04 105.53C113.04 110.73 108.14 114.26 101.21 115.43C98.0448 115.793 94.8468 115.759 91.69 115.33C86.8516 114.532 82.3948 112.209 78.97 108.7C77.82 107.43 75.58 104.12 75.72 103.88C76.0851 103.609 76.4694 103.365 76.87 103.15L81.5 100.59L85.09 98.51L85.84 99.62C87.1057 101.431 88.7166 102.973 90.58 104.16C94.58 106.26 100.04 105.97 102.74 103.54C103.647 102.65 104.212 101.469 104.338 100.205C104.464 98.9405 104.143 97.6719 103.43 96.62C102.43 95.23 100.43 94.06 94.84 91.62C88.39 88.84 85.61 87.12 83.07 84.38C81.4843 82.5719 80.3136 80.4386 79.64 78.13C79.1375 75.4924 79.0633 72.7912 79.42 70.13C80.75 63.9 85.42 59.55 92.24 58.26C95.3984 57.8692 98.5977 57.9569 101.73 58.52V58.5ZM72.39 63.74V68.86H56.16V115.09H44.65V68.85H28.38V63.85C28.3293 62.1258 28.3694 60.4 28.5 58.68C28.58 58.59 38.5 58.59 50.5 58.59H72.33L72.39 63.74Z" fill="#445964"/>
</svg>
