<svg width="45" height="60" viewBox="0 0 45 60" fill="none" xmlns="http://www.w3.org/2000/svg">
<g clip-path="url(#clip0_4_3)">
<path d="M25.1484 4.85156C23.6836 3.38672 21.3047 3.38672 19.8398 4.85156L1.08984 23.6016C-0.375 25.0664 -0.375 27.4453 1.08984 28.9102C2.55469 30.375 4.93359 30.375 6.39844 28.9102L18.75 16.5469V52.5C18.75 54.5742 20.4258 56.25 22.5 56.25C24.5742 56.25 26.25 54.5742 26.25 52.5V16.5586L38.6016 28.8984C40.0664 30.3633 42.4453 30.3633 43.9102 28.8984C45.375 27.4336 45.375 25.0547 43.9102 23.5898L25.1602 4.83984L25.1484 4.85156Z" fill="white"/>
</g>
<defs>
<clipPath id="clip0_4_3">
<rect width="45" height="60" fill="white"/>
</clipPath>
</defs>
</svg>
